<svg xmlns="http://www.w3.org/2000/svg" viewBox="0 0 512 512" width="512" height="512">
  <!-- Dark rounded background -->
  <rect width="512" height="512" rx="64" fill="#1E1E1E"/>
  <!-- Inner container -->
  <rect x="16" y="16" width="480" height="480" rx="40" fill="#252526" stroke="#3C3C3C" stroke-width="2"/>
  <!-- Icon scaled to fit (original ~508x508 content, scaled to ~380px centered) -->
  <g transform="translate(256,256) scale(0.7) translate(-254,-254)">
    <g transform="matrix(-1,0,0,1,508,0)">
      <path style="fill:#32559a;" d="M296.4,403.2c0,39.2-32,71.2-71.2,71.2s-71.2-32-71.2-71.2c0-7.6-6.4-14-14-14s-14,6.4-14,14 c0,54.4,44.4,98.8,98.8,98.8c54.4,0,98.8-44.4,98.8-98.8c0-53.2,22.4-74.8,48.4-100.4c26.8-26,57.2-55.6,57.2-121.6 C429.2,84.4,350.8,6,254,6S78.8,84.4,78.8,181.2c0,7.6,6.4,14,14,14s14-6.4,14-14c0-81.2,66-147.6,147.6-147.6S402,99.6,402,181.2 c0,54.4-22.4,76.4-48.8,102C326.4,308.8,296.4,338.4,296.4,403.2z"/>
      <path fill="#D4D4D4" d="M225.2,508c-57.6,0-104.8-47.2-104.8-104.8c0-10.8,8.8-20,20-20c10.8,0,20,8.8,20,20c0,36,29.2,65.2,65.2,65.2 s65.2-29.2,65.2-65.2c0-67.2,31.2-97.6,58.4-124.4c25.2-24.8,46.8-46,46.8-97.6c0-78-63.6-141.6-141.6-141.6 s-141.6,63.6-141.6,141.6c0,10.8-8.8,20-20,20c-10.8,0-20-8.8-20-20C72.8,81.2,154,0,254,0s181.2,81.2,181.2,181.2 c0,68.4-31.2,99.2-58.8,126c-24.8,24.4-46.4,45.2-46.4,96C330,460.8,283.2,508,225.2,508z M140.4,391.2c-6.4,0-12,5.2-12,12 c0,53.2,43.6,96.8,96.8,96.8s96.8-43.6,96.8-96.8c0-54,22.8-76,48.8-101.6c26.4-26,56.4-55.2,56.4-120.4C427.2,85.6,349.6,8,254,8 S80.8,85.6,80.8,181.2c0,6.4,5.2,12,12,12c6.4,0,12-5.2,12-12c0-82.4,67.2-149.6,149.6-149.6S404,98.8,404,181.2 c0,55.2-22.8,77.6-49.2,103.2s-56,54.8-56,118.8c0,40.4-32.8,73.2-73.2,73.2s-73.2-32.8-73.2-73.2 C152.4,396.8,146.8,391.2,140.4,391.2z"/>
      <path fill="#D4D4D4" d="M179.6,333.2c-10.4,0-20.4-2.8-29.6-8.4c-2-1.2-2.4-3.6-1.2-5.6s3.6-2.4,5.6-1.2c11.6,6.8,25.2,8.8,38.4,5.6 c13.2-3.2,24-11.6,30.8-23.2s8.8-25.2,5.6-38.4s-11.6-24-23.2-30.8c-9.6-5.6-20-8-30.8-6.8c-2.4,0.4-4-1.2-4.4-3.6 c-0.4-2,1.2-4,3.6-4.4c12.4-1.2,24.8,1.2,36,8c13.6,8,22.8,20.8,26.8,36s1.6,30.8-6.4,44.4s-20.8,22.8-36,26.8 C189.2,332.8,184.4,333.2,179.6,333.2z"/>
      <path fill="#D4D4D4" d="M184.8,218.4c-2.4,0-4-1.6-4-4V184c0-43.6,36-78.8,80-78.8s80,36,80,80c0,2.4-1.6,4-4,4s-4-1.6-4-4c0-39.6-32.4-72-72-72 s-72,31.6-72,70.8v30.4C188.8,216.4,187.2,218.4,184.8,218.4z"/>
    </g>
  </g>
</svg>
